{
	"patcher" : 	{
		"fileversion" : 1,
		"appversion" : 		{
			"major" : 8,
			"minor" : 6,
			"revision" : 4,
			"architecture" : "x64",
			"modernui" : 1
		}
,
		"classnamespace" : "box",
		"rect" : [ 98.0, 79.0, 1342.0, 943.0 ],
		"bglocked" : 0,
		"openinpresentation" : 0,
		"default_fontsize" : 12.0,
		"default_fontface" : 0,
		"default_fontname" : "Arial",
		"gridonopen" : 1,
		"gridsize" : [ 15.0, 15.0 ],
		"gridsnaponopen" : 1,
		"objectsnaponopen" : 1,
		"statusbarvisible" : 2,
		"toolbarvisible" : 1,
		"lefttoolbarpinned" : 0,
		"toptoolbarpinned" : 0,
		"righttoolbarpinned" : 0,
		"bottomtoolbarpinned" : 0,
		"toolbars_unpinned_last_save" : 0,
		"tallnewobj" : 0,
		"boxanimatetime" : 200,
		"enablehscroll" : 1,
		"enablevscroll" : 1,
		"devicewidth" : 0.0,
		"description" : "",
		"digest" : "",
		"tags" : "",
		"style" : "",
		"subpatcher_template" : "",
		"assistshowspatchername" : 0,
		"boxes" : [ 			{
				"box" : 				{
					"id" : "obj-62",
					"maxclass" : "newobj",
					"numinlets" : 3,
					"numoutlets" : 1,
					"outlettype" : [ "signal" ],
					"patching_rect" : [ 1341.0, 686.0, 40.0, 22.0 ],
					"text" : "slide~"
				}

			}
, 			{
				"box" : 				{
					"id" : "obj-61",
					"maxclass" : "message",
					"numinlets" : 2,
					"numoutlets" : 1,
					"outlettype" : [ "" ],
					"patching_rect" : [ 1203.521142542362213, 631.428652346134186, 108.0, 22.0 ],
					"text" : "80.949048"
				}

			}
, 			{
				"box" : 				{
					"id" : "obj-60",
					"maxclass" : "newobj",
					"numinlets" : 6,
					"numoutlets" : 1,
					"outlettype" : [ "" ],
					"patching_rect" : [ 1195.258073508739471, 555.238166391849518, 123.0, 22.0 ],
					"text" : "scale 0. 0.25 80. 157."
				}

			}
, 			{
				"box" : 				{
					"id" : "obj-59",
					"maxclass" : "ezdac~",
					"numinlets" : 2,
					"numoutlets" : 0,
					"patching_rect" : [ 1210.563396155834198, 919.718321919441223, 45.0, 45.0 ]
				}

			}
, 			{
				"box" : 				{
					"id" : "obj-58",
					"maxclass" : "number",
					"numinlets" : 1,
					"numoutlets" : 2,
					"outlettype" : [ "", "bang" ],
					"parameter_enable" : 0,
					"patching_rect" : [ 1292.253538072109222, 877.221315086162576, 50.0, 22.0 ]
				}

			}
, 			{
				"box" : 				{
					"id" : "obj-53",
					"maxclass" : "gain~",
					"multichannelvariant" : 0,
					"numinlets" : 1,
					"numoutlets" : 2,
					"outlettype" : [ "signal", "" ],
					"parameter_enable" : 0,
					"patching_rect" : [ 1210.563396155834198, 759.221310913837442, 40.666667878627777, 140.000004172325134 ]
				}

			}
, 			{
				"box" : 				{
					"id" : "obj-33",
					"maxclass" : "message",
					"numinlets" : 2,
					"numoutlets" : 1,
					"outlettype" : [ "" ],
					"patching_rect" : [ 959.0, 631.428652346134186, 108.0, 22.0 ],
					"text" : "0.003081"
				}

			}
, 			{
				"box" : 				{
					"id" : "obj-32",
					"maxclass" : "message",
					"numinlets" : 2,
					"numoutlets" : 1,
					"outlettype" : [ "" ],
					"patching_rect" : [ 1083.952519476413727, 631.428652346134186, 108.0, 22.0 ],
					"presentation_linecount" : 2,
					"text" : "-1.975349"
				}

			}
, 			{
				"box" : 				{
					"id" : "obj-21",
					"maxclass" : "comment",
					"numinlets" : 1,
					"numoutlets" : 0,
					"patching_rect" : [ 1345.378071069717407, 306.722670793533325, 150.0, 20.0 ],
					"text" : "-5 - 0"
				}

			}
, 			{
				"box" : 				{
					"id" : "obj-14",
					"maxclass" : "gain~",
					"multichannelvariant" : 0,
					"numinlets" : 1,
					"numoutlets" : 2,
					"outlettype" : [ "signal", "" ],
					"parameter_enable" : 0,
					"patching_rect" : [ 1031.683171391487122, 253.465347290039062, 22.0, 140.0 ]
				}

			}
, 			{
				"box" : 				{
					"id" : "obj-11",
					"maxclass" : "comment",
					"numinlets" : 1,
					"numoutlets" : 0,
					"patching_rect" : [ 701.0, 437.0, 150.0, 20.0 ]
				}

			}
, 			{
				"box" : 				{
					"id" : "obj-9",
					"maxclass" : "newobj",
					"numinlets" : 1,
					"numoutlets" : 1,
					"outlettype" : [ "" ],
					"patching_rect" : [ 1184.0, 247.0, 100.0, 22.0 ]
				}

			}
, 			{
				"box" : 				{
					"basictuning" : 440,
					"data" : 					{
						"clips" : [ 							{
								"absolutepath" : "prim.loop.aif",
								"filename" : "prim.loop.aif",
								"filekind" : "audiofile",
								"id" : "u401002525",
								"loop" : 1,
								"content_state" : 								{
									"loop" : 1
								}

							}
 ]
					}
,
					"followglobaltempo" : 0,
					"formantcorrection" : 0,
					"id" : "obj-4",
					"maxclass" : "playlist~",
					"mode" : "basic",
					"numinlets" : 1,
					"numoutlets" : 5,
					"originallength" : [ 0.0, "ticks" ],
					"originaltempo" : 120.0,
					"outlettype" : [ "signal", "signal", "signal", "", "dictionary" ],
					"parameter_enable" : 0,
					"patching_rect" : [ 1041.952519476413727, 705.645166337490082, 150.0, 30.0 ],
					"pitchcorrection" : 0,
					"quality" : "basic",
					"timestretch" : [ 0 ]
				}

			}
, 			{
				"box" : 				{
					"dragtrack" : 1,
					"handoff" : "",
					"hilite" : 0,
					"id" : "obj-1",
					"maxclass" : "ubutton",
					"numinlets" : 1,
					"numoutlets" : 4,
					"outlettype" : [ "bang", "bang", "", "int" ],
					"parameter_enable" : 0,
					"patching_rect" : [ 1053.0, 43.0, 125.0, 38.0 ]
				}

			}
, 			{
				"box" : 				{
					"id" : "obj-5",
					"maxclass" : "newobj",
					"numinlets" : 1,
					"numoutlets" : 0,
					"patcher" : 					{
						"fileversion" : 1,
						"appversion" : 						{
							"major" : 8,
							"minor" : 6,
							"revision" : 4,
							"architecture" : "x64",
							"modernui" : 1
						}
,
						"classnamespace" : "box",
						"rect" : [ 53.0, 438.0, 640.0, 480.0 ],
						"bglocked" : 0,
						"openinpresentation" : 0,
						"default_fontsize" : 12.0,
						"default_fontface" : 0,
						"default_fontname" : "Arial",
						"gridonopen" : 1,
						"gridsize" : [ 15.0, 15.0 ],
						"gridsnaponopen" : 1,
						"objectsnaponopen" : 1,
						"statusbarvisible" : 2,
						"toolbarvisible" : 1,
						"lefttoolbarpinned" : 0,
						"toptoolbarpinned" : 0,
						"righttoolbarpinned" : 0,
						"bottomtoolbarpinned" : 0,
						"toolbars_unpinned_last_save" : 0,
						"tallnewobj" : 0,
						"boxanimatetime" : 200,
						"enablehscroll" : 1,
						"enablevscroll" : 1,
						"devicewidth" : 0.0,
						"description" : "",
						"digest" : "",
						"tags" : "",
						"style" : "",
						"subpatcher_template" : "",
						"assistshowspatchername" : 0,
						"boxes" : [ 							{
								"box" : 								{
									"id" : "obj-4",
									"maxclass" : "button",
									"numinlets" : 1,
									"numoutlets" : 1,
									"outlettype" : [ "bang" ],
									"parameter_enable" : 0,
									"patching_rect" : [ 116.0, 147.0, 24.0, 24.0 ]
								}

							}
, 							{
								"box" : 								{
									"comment" : "",
									"id" : "obj-1",
									"index" : 1,
									"maxclass" : "inlet",
									"numinlets" : 0,
									"numoutlets" : 1,
									"outlettype" : [ "bang" ],
									"patching_rect" : [ 116.0, 93.0, 30.0, 30.0 ]
								}

							}
, 							{
								"box" : 								{
									"id" : "obj-3",
									"linecount" : 2,
									"maxclass" : "message",
									"numinlets" : 2,
									"numoutlets" : 1,
									"outlettype" : [ "" ],
									"patching_rect" : [ 116.0, 192.0, 283.0, 35.0 ],
									"text" : ";\rmax launchbrowser https://youtu.be/U3B5oNX4N0g"
								}

							}
 ],
						"lines" : [ 							{
								"patchline" : 								{
									"destination" : [ "obj-4", 0 ],
									"source" : [ "obj-1", 0 ]
								}

							}
, 							{
								"patchline" : 								{
									"destination" : [ "obj-3", 0 ],
									"source" : [ "obj-4", 0 ]
								}

							}
 ]
					}
,
					"patching_rect" : [ 1088.333251999999902, 95.0, 162.0, 22.0 ],
					"saved_object_attributes" : 					{
						"description" : "",
						"digest" : "",
						"globalpatchername" : "",
						"tags" : ""
					}
,
					"text" : "p view screencast"
				}

			}
, 			{
				"box" : 				{
					"data" : [ 5843, "png", "IBkSG0fBZn....PCIgDQRA...fG...vHHX....vWs3r4....DLmPIQEBHf.B7g.YHB..VnXRDEDU3wY6atGicTcmm+y4QU2Gc2taZ2Nsab2XKa.2YjIfIw7vDSjmMNjfHwKHkkrixpEuJynIYDJZFg1cPizJYEQDIBocXQwgDPIrjHhxxvJzBSFOavJh3rgPBlwPVrMfc2C3G3Gss691ceu0sp5bN6eT0o55da+fjPXVsJ+jptpttUcd86762uu+dTBq05.PHDbtnHf..A.VKR.jR.vBHcmyWCxuuS5.Dr3V2k8LVAFEXxuW.BD1722AVoEYd+4bNbNGBg.gPTbc1PyV7+ke9y275cKYs1h967QWr9IMMEsVi0lMW7yC+3z2O.HkRRRRHHH32owsmDWLFLNKjl.RAnz.NbXPX.rPZw3PTbdgVRfB04ocKFAfKArVPovfDSdqoPhjEVDNWKj9EsxOyEb97aIUdyU41u69q6MDcuIr6wpPHVz8692+cgDN+H77PFL.NTnwQlDs.nZGijKv0Riuq57GyubVYB0HDMxLw3btqSCVAEaOJOLOeKtcSuWr.Uts5tu6VJ7cSaTlg5++xiSuz96UzEkA6HEPhvI82.mHaw2.D5RuH8ftDa0Ubs+JkUB4smyApb9QJPBFp5juqXR+9Rx0q5z21ka+xLly0xn+cUpN0h0MSz4bXs1E8buWPWTFLtDr3H1AAx.TjyYsIPfD5VEb2sVYAX55ZQ1gMwhvAhfLlMlXbhTDRIcoq.XA6sPlMqxK5ksEewrc9aK8ailAOyt7XJMMEoThTJ6Pp1e+2KX3WbFbBPPFeKFCRrnADjAdJlLivB.IE7rR7SaNdIWWm8jlPxugyPpTh.Q11l799hQ+9R5EN+frNWlLJ+N.EpuOWsgwXPoTcnl92TU9uanyKC1eaq.Tm7jvaeT3cNJtSdBRaLG5Fw3ltEx4dmLcqFKjZvZLXSM3LFbNGwpvLjsZEJsFUfFkVCZEHkLeeCfZvdQLb+HW1fDL7kBq3xfAGlXsfftjVrVag5rtsGV9498kp5yEftxWeg.KUVUbbbbw8hiio2d6k33XBCCKdO+lfeWnKJCV7ceDl5G9LT4m9qnunl.ySSrTQpPYUXEwYRqNNGtBc9oBPz4mMRPYC.U+Dc0WMxu3+VBuq+03TCVvrZ2tMyLyLzpUKTJEUqVkAGbvhE0nnHN6YOKsZ0hJUpPu81K82e++FunzM0tcalc1YoUqVcHM1szW0pUYfAFfJUpjMG6RyhmgYLFd7G+w4IexmD.ttq653dtm6gd6s2hmqaSO+1R5LWNiQ4BAKXTQnRqRpVPv+ymE9K9KYnjDrlTr4C1ZNINqEKVDtdQPS.KsCgPKHxwcknzDXfL1XFXM.bXvI.WfBUrg4BjTOQBjPhbJp9x6hz+5CB8XPbm+6AQEv.xP39uu6ic++9komjTtt63ixW6+7WuXg9sdq2h65ttqBIguw23av5W+5WjFfx9I6kn72uLSvqB0XL7E+heQd629sylWIIn05hmwZsn0ZpWuNe2u62kUtxUVz9ciV14bnTJZznASLwD.vniNZwlhyEXKe+UVEd2.7J+dk2XIs3x7U067IZPCp4mk4dx+dHIAmIs.0q.PHx71UHDXXNhkVR.TwfvFfsZEPIIvjhgTLjPBNrYnyPf.oPRRbFBrPm.YtrrIWz1b5oX5+6OKzJB+dDsHf0cUWEy2bdlct43.6+.zpUqrwgwva7FuAMZzfYlYFpUqFKe4Ku32fEjL7jew1jaNwun3OW1tXbbLSO8zb1ydVhhhHJJhlMaxbyMGMZznPyguc8.kJ2lZsdQppKyT7uiwXJLIXLFBBB5H.Nsa2tiwmPHVzlBgPjgV25LfH+GkYK+R.4wOAUdteFVSxhTm57+0AZfX.SXHUMZRMswDkPHj0RZaNbrLlWrwgFPKTTkrIg1XABvQ1jDkfJlHDO+Kg8vGCyZ6AkTi.Ia7ltQ58a+Xjlzficj2gomdZpWuN.ru8sODBAgggL93iyfCN3h.t3kH8nWA5XQ1euxLGiwvF1vFXzQGEsVyq9puJG9vGlZ0pw.CL.qe8qm33X5qu9JXFd2f7Lfx1W83HLFSg59vvvhMZ9wi2cJejs5lY5Gucq0wOl0ZM5rG0T3upJUfQ6PehiQvTGOSsL4wmRjCnoDFXgNDUZLgww.w3.p.fTi0ZvkVRpWI.kCqAvXx1QIxC+o.Dx.BLof0AXHb5yP6IdKzie4.PRZBW1JWIqZ0qhC7R+SjN67r+8ueFd3gwXL7Zu1qUrPdi23MR0pUWjpWu5T+BnWxxuvWVsrWsXO8zC268duXsVBBB3q9U+p78+9eehiiYCaXCb+2+8iVqWD.qxLvxgdToTcHUlllR61soRkJEZajRYgY.+65mCZstCeoKq8we+hMpJgFmMk1h7PZHjnQP7geaH8LYCBg.QNRpxLW.roFLgAjFj2f81CQHHwlhjLoUEYwrVj5PKjnzRRyBDcVa3bz1ECNKUx8q1J.bsQejiW3osvInV85rgM7gINeyygNzgPoTzpUKdm24cPoTzWe8w0bMWSwhheAqrul9EZ+hTRRRgjQYIvxn18L7xpziiiKZ6xOuu88LvxlJJqhtrcZee6kBKi31y37pkKyb8R4k0JIDhLa2XAqTR.BRJw6Z+NmBozhxkKdgCOdauMXGNRBkD1NgTf3w+iH3OYqn10ul3W7EvjdZboPM7QsIEapEzxrMLNAFmCjBDVKVablsXGXTPaET63mBHAaZ.5fr14Ftwqme326InY77rm8rGhhhXhIlfSe5SiPHX0qd0bEWwUPZZJSLwD7LOyyva8VuEFiggFZH9ve3OL2xsbKER3SN4j7S+o+zBlxsdq2JCMzPr28tW1yd1CZsFkRwm6y84JP2VFkqeQ9YdlmgyblyPbbLqZUqhsrksvLyLCO8S+zEaJ9DehOAW5kdoEaTLFC0pUiolZJ9w+3eLu3K9hze+8ysbK2BadyaFmyUnZee6ae7TO0SwzSOMyN6rr7kub9jexOIabiarPEdYPcAAAYAXVfJytqOZEVK0NaDZQVN.PzoTqXAdN11IPfBchgVwZB+7+6H3KMDA+v+NZ9POLwG4PjNWD8gDHDAIXctB7zNjnjhrPTZLjjK0qMPpR.mbJblDrtrglgTthq3xYzUNF6609+vjSNIyO+775u9qWrSeCaXCTsZU9E+heAe4u7WlYmc1B0zsa2lezO5Gwt28tY6ae6zSO8va7FuAO3C9fzrYSVwJVA2zMcSL3fCxu5W8q3AdfG.oTxvCOL29se6zSO8f0ZKP15UA2tca9A+fe.6YO6AoTxcbG2Ae7O9Gmyblyv27a9M4jm7jDFFxpV0pXrwFifffBU9MZzfsu8syy+7Oew828t2Mequ02h0st0A.O+y+7bO2y8PylMoc61TqVMLFCO6y9rb228cy1111Vf+TVUcVjGyxXjDHMmwomyrPXF6hbd0LNHjAfDCVEXqH.cMhGbYve5Wf5+O9VLvl1HgKaHZmu0vQlJ4BOWjZRRM41jAiFDBMBzDDKvNcCDBvG5ViyvGXYKi0b4WAg5PN8oOMG4HGgW9ke4h.F7Q+neTZ2tMOxi7HL8zSiRoXzQGkMsoMw.CL.MZzfctycx9129v4bDDDT.jwXLDFFVHI3Ui1MJUe5+fEBOpWRyKc6kza0pE80WecXW0iX1Zs7K+k+RNxQNBabiarvLxIO4I4m8y9YHDBhhh3ge3GlYmcVBBBXyady7w9XeLzZMMa1jm3IdBNwINQGlA7iWIBGADfSXQ4svprzN5TKHslGaQQW+uDHUNcVCYDDlFAppDJfVJfO3GAdxmlJ+s+WQtoMRTECJsKyWYmHKJY1rfc5CeYkTv4RwQJJrfcVvFRjHaKRXZEjIV1zFuQZniINNl8u+8ywN1wPq0rrksLV4JWIG4HGgCbfCfTJIHHf68duW95e8uNiM1XEKxuvK7Bc3JjGcc43FWNCPc6BkPHVvCCojjzTDxrm0laOyq9NNNtC+f8j0ZYjQFgG5gdH9ZesuFqcsqknnHpWuN6e+6mzzTNvAN.G7fGD.FYjQX6ae6be228wpW8pQJkL0TSwq+5udwlK+Xzlk+9x42zUv.clExhxEhBsJRjPas.mMgFoyiAG0DAPpABqS7ex+FBd1mfp2++ErieSzjdHwIQd9xUbIJscLXbTg7P3o.BTL93iyGXvg.fexO4mvDSLAFigq+5ud5u+943G+3LyLyjEXlZ03JuxqjAFX.V6ZWaAC5PG5P+dMN1uanJUpvXiMFqXEqfgGdXVyZVCUqVk33XNwINAFigImbRZznAZslku7kyvCOL82e+L3fCVX14zm9zcDPEHiYKKbtUjiBFxqzhKbNH7TCki.KDXbDJjrjz.TNAQBG3TDEjECq4VxkR5e1ch3+vmgpCtTBvQh6huIRZDPhAABRcFevv3xWyZXkqXLRSS4kdoWhyblyfRo3lu4alvvPN7gObA50ff.FXfAvZsrjkrjB0im3DmniLS0crse+fRRRn2d6sPxaIKYIYy67fqXLFN9wON.E.x7OakJUJPp2nQiEUcKNmKqharPNC1kgmxk4tz6FZI4o6w4bfSBprnhEhfj.MA.UHldek8f3t9ORxeyCfswQocnC4hxs3hIck5fUlUEIY.rwXhQWMf0s1OHFiglMahTJo+96m0t10B.yM2bc39f2mTfB2P7KfuWVX.+lRoooEtVkllRkJU5HJVsa2lFMZ.jsFWudcLFCwwwE3C7uq+YJmHFcmotagD0pKkUiKDYLsQo.bJH0AVGFcVaFjZw9J+bj+v+A3weRTmXBTXvQVxjZqgvKR8BPPHDDjmBwrsDNAfEtgq654uKOf8Fig0rl0vxV1xxlX4ff7.c7W2clc5VR88aU1AAAjlll4RiVWfL2O17..89.u6cua9Begu.ggg7pu5qtn4g22YOdBMTNKP4Y4UJP1Scxi0zEjT0Cv1LIyUppZl2MONZRuG4nv+s+WH+aeXlYp2j5p1nICXdhRivjRUVb8AzMEoUTUoxGI1b2pTfEV25tJ5omdX1YmEq0x0bMWCUqVsHJT9ykilkO..9c4cW+TueS9wiuu8nf8A7vyfiiioZ0pL2bywu9W+qINNFsVSsZ0Jhoc2IpPHDkXvVGHyJ3MoP.8VmDIT4hYlrYBxf.hSRPkFQOx139G+GH9gdbD+86BqXd5APSVA6k4iqCzUIIMhKV0GErzAHQIQiCgwjUkGhLH8Ko+AJB4mRoXjQFoXh4OWNRT9Cuzv4qhOd+jg2MSo6Lc484UoTjllx0dsWK28ce2EAoQHDzrYyBD094agJZny73loxVfnZHouKXvwgZTwInpTANSCR9OsCjO8+Hgw+yYsdZVXGSDPJFpo.LYg3TK5AbyeAae0HCSpRfEKJxBYpwZPI0jZMESFiwPRRRGgzyuq1KkTqVMhhhJB+mObe+KA3JO0sZ3xyAuDrGHE.CN3fb8W+0Wj8Ier0KGJ1xURhV5rDKjDJUzj4otnGvByr9UQMqDm.LNKZoDQAx5rh1w.DDmmm21I3hOKpm7Q..iHuJIyAtoRsY1P82C.WSrgPR7BUdUVU5TCnMIUTzbrKm9a2DSkZfUCJHUlEw5ptzB6okUI6bNV5RWZwBXZZJIIIEfQ7.qFZngVjeu9P9UtBNJuoAnfQDFFhfEPspjRrFaVRCxW7KGRSehCrVaQ1iJOtEBASM0TEISnd85HDBV0pVEZslnnnB04Bgfcricvt28to2d6kO+m+yyV1xV.VHKTBg.I3HHmuERHDYvHg5COBg8LLRQlmTswRrzCIKAKwnpFiEYwgwIv5DcbNq5pxrglmHx7+O6PECUQmkoXs.m.ZqagUKHHVP8OvPYHxJomIyUNGl7IpeR6y5hy43xtrKi50qiTJoYylbricLhhhXxImr.84niNJAAATqVsNRDu2Mp4latNzD3kL7R+kUm56au1gnnHjRIyN6rEHdCBBnc61HkRle94KLuDEEQqVsXt4liImbxBoxK8RuTpVsZQds0ZMG9vGlYlYFLFC6e+6m27MeSdgW3EHJJpX8oijRfPhvlIroEAf0RLP0gGAFdkvAOMZBwIrDQJ1.IUEJHNgzHPyEqrYuv+bVNJCvZrnRsDFBtXHRXHXkiQvpVAnTTjyCKnjYvsrhElP93u5k5trK6xXjQFgCdvCx7yOOe6u82lUu5Uya9luYQXIutq65.fd5omBI0VsZwC9fOHqbkqjm9oe5NJOGuZd.BCCoUqVELWmywkbIWRgsxW4UdEdfG3A3m+y+4DFFRiFM5H6UdPdQQQ7Zu1qw1291oc61LwDSf0ZoZ0pL93ii0Z4C8g9PrhUrBlbxI4nG8nricrCV5RWJu7K+xzpUKFYjQXMqYMcjkphPk5YBNadfmUYeKAhAFBt0+37xdOk.ij9LJjI17OzgZnoNH03DprCTj4c6BGoN55PfwIy+BFxXbMBZgPIwRdrnAp55C17eLr7gn.FPV1FPRlqRxtRoWY.SKYIKgssssQsZ0PHDryctSdzG8Q4Lm4LTsZU17l2bACd7wGmq9pu5BsAO2y8b789deOtq65tJBLRY6fvBUGh2kjff.1zl1TgzyoN0o367c9NrzktT15V2ZA5dXAUnooozau8xG4i7QXu6curqcsqBLBCLv.bq25shPHn+96muzW5KQ+82OQQQ7XO1iwN1wNX94mmAFX.t8a+14Juxqri.cTjq6TaJRY.ZUtaHpbemB5E9y+bnd0miY9m1O8MyrHQQHPpKgLqkYLLepD6pbmy5.TrfyPkN6xOWEDw4EGFUHpYJVVB5a9eE5+p+RnVUr9pFPRV0ahDGBpDVgO8m9SWTBKiO93ELCgPvV25VYngFhctycxAO3AwXLL1XiwF1vF3y7Y9LERiUqVkuxW4qvi9nOJ6cu6kQGcT9TepOEaYKagVsZwTSME80WeYibmiq8Zu1B0nqd0qtfoda21sQiFMXW6ZWztcatga3FXaaaabpScpB6ziLxHn0ZV25VG24cdmn0Z9re1OKRojG6wdLNzgNDW9ke4bG2wcT3U..21scarzktTdpm5o3nG8nL6ryxUcUWEacqak0u90W3NX4bZasVDVqy4DfDKVmEDZjtLIDCFzGaeD8TOGpc9hD7FuElodGLtVnEVjwwYIFv4xJcVqaQIkH0YyBLQVulW7zRDxLUHJiDpN.3pBCdIDu1QIbK2Lbqaglev+Hpi.qIaimDPXbfRPJYk5SpyVHMTdxU9C3xG4mVsZUDxxxU0g+ZeUS5CAX4.izcIsV1bP4OXrzzzhRh0uAxqdOLLrv9s21tufA7fsZ0pEAAAcTYlkkLiiiwZsEdD3CPhuZO793WjzgrxlMqf3bk9XwRSsjnEDh.QbBxzXnUChldJjyOGAmcNDSOOLWy75h1jIcYrYIQNmo2NP.BABoDoRhTqQpUYgzTJIZndPUqF1kzKUFaTRkRZozTWeInvyHAadcAFPt8WDYR8xycgkWFTz4568o7Ff4lathRV8B8wi0860M0c+Tt7WOWgC02V9x0wStRfG8LqtqK6xuS44Z4qMFSlDrvZHU4PhBYpAmVmIAl.oAtE9RCr1r3MKyEVkPY2jyjbyd9Bo3NxobGkDxBUSadHtrRns.pAjUoIIXcA4gHAZKbTkLehMHIHmAWdA0CxoLRxx1N6lI3WP5dQtLyo6br1Min7h+4pO88Q49t6O.MOyt6ZHq77x2mkcGrbeUdyWQHWc+KQ749Cz6az6seHL+A5+mi9CL3++b5+KRyOqcazrt9O.....IUjSD4pPfIH" ],
					"embed" : 1,
					"id" : "obj-12",
					"maxclass" : "fpic",
					"numinlets" : 1,
					"numoutlets" : 1,
					"outlettype" : [ "jit_matrix" ],
					"patching_rect" : [ 1053.0, 43.0, 124.0, 40.0 ],
					"pic" : "youtubelogo.jpg"
				}

			}
, 			{
				"box" : 				{
					"format" : 6,
					"id" : "obj-79",
					"maxclass" : "flonum",
					"numinlets" : 1,
					"numoutlets" : 2,
					"outlettype" : [ "", "bang" ],
					"parameter_enable" : 0,
					"patching_rect" : [ 698.0, 627.471313000000009, 50.0, 22.0 ]
				}

			}
, 			{
				"box" : 				{
					"bgcolor" : [ 0.376187, 0.409384, 0.445165, 1.0 ],
					"contdata" : 1,
					"id" : "obj-78",
					"maxclass" : "multislider",
					"numinlets" : 1,
					"numoutlets" : 2,
					"orientation" : 0,
					"outlettype" : [ "", "" ],
					"parameter_enable" : 0,
					"patching_rect" : [ 698.0, 593.471313000000009, 132.0, 23.0 ],
					"setminmax" : [ 0.0, 1.0 ],
					"setstyle" : 1,
					"slidercolor" : [ 0.870588, 0.415686, 0.062745, 1.0 ]
				}

			}
, 			{
				"box" : 				{
					"id" : "obj-77",
					"maxclass" : "multislider",
					"numinlets" : 1,
					"numoutlets" : 2,
					"outlettype" : [ "", "" ],
					"parameter_enable" : 0,
					"patching_rect" : [ 630.0, 745.471313000000009, 200.0, 72.0 ],
					"setminmax" : [ 0.0, 1.0 ],
					"setstyle" : 3
				}

			}
, 			{
				"box" : 				{
					"format" : 6,
					"id" : "obj-76",
					"maxclass" : "flonum",
					"numinlets" : 1,
					"numoutlets" : 2,
					"outlettype" : [ "", "bang" ],
					"parameter_enable" : 0,
					"patching_rect" : [ 630.0, 627.471313000000009, 50.0, 22.0 ]
				}

			}
, 			{
				"box" : 				{
					"bgcolor" : [ 0.870588, 0.415686, 0.062745, 1.0 ],
					"fontname" : "Arial",
					"fontsize" : 14.0,
					"id" : "obj-51",
					"maxclass" : "newobj",
					"numinlets" : 2,
					"numoutlets" : 1,
					"outlettype" : [ "float" ],
					"patcher" : 					{
						"fileversion" : 1,
						"appversion" : 						{
							"major" : 8,
							"minor" : 6,
							"revision" : 4,
							"architecture" : "x64",
							"modernui" : 1
						}
,
						"classnamespace" : "box",
						"rect" : [ 34.0, 79.0, 733.0, 519.0 ],
						"bglocked" : 0,
						"openinpresentation" : 0,
						"default_fontsize" : 12.0,
						"default_fontface" : 0,
						"default_fontname" : "Arial",
						"gridonopen" : 1,
						"gridsize" : [ 15.0, 15.0 ],
						"gridsnaponopen" : 1,
						"objectsnaponopen" : 1,
						"statusbarvisible" : 2,
						"toolbarvisible" : 1,
						"lefttoolbarpinned" : 0,
						"toptoolbarpinned" : 0,
						"righttoolbarpinned" : 0,
						"bottomtoolbarpinned" : 0,
						"toolbars_unpinned_last_save" : 0,
						"tallnewobj" : 0,
						"boxanimatetime" : 200,
						"enablehscroll" : 1,
						"enablevscroll" : 1,
						"devicewidth" : 0.0,
						"description" : "",
						"digest" : "",
						"tags" : "",
						"style" : "",
						"subpatcher_template" : "",
						"assistshowspatchername" : 0,
						"boxes" : [ 							{
								"box" : 								{
									"comment" : "",
									"id" : "obj-1",
									"index" : 1,
									"maxclass" : "outlet",
									"numinlets" : 1,
									"numoutlets" : 0,
									"patching_rect" : [ 135.0, 385.0, 60.0, 60.0 ]
								}

							}
, 							{
								"box" : 								{
									"comment" : "",
									"id" : "obj-2",
									"index" : 1,
									"maxclass" : "inlet",
									"numinlets" : 0,
									"numoutlets" : 1,
									"outlettype" : [ "" ],
									"patching_rect" : [ 75.0, 30.0, 45.0, 45.0 ]
								}

							}
, 							{
								"box" : 								{
									"comment" : "",
									"id" : "obj-3",
									"index" : 2,
									"maxclass" : "inlet",
									"numinlets" : 0,
									"numoutlets" : 1,
									"outlettype" : [ "" ],
									"patching_rect" : [ 261.0, 30.0, 41.0, 41.0 ]
								}

							}
, 							{
								"box" : 								{
									"fontname" : "Arial",
									"fontsize" : 18.0,
									"id" : "obj-4",
									"maxclass" : "newobj",
									"numinlets" : 2,
									"numoutlets" : 1,
									"outlettype" : [ "float" ],
									"patching_rect" : [ 135.0, 269.0, 44.0, 29.0 ],
									"text" : "+ 0."
								}

							}
, 							{
								"box" : 								{
									"fontname" : "Arial",
									"fontsize" : 18.0,
									"id" : "obj-5",
									"maxclass" : "newobj",
									"numinlets" : 2,
									"numoutlets" : 1,
									"outlettype" : [ "float" ],
									"patching_rect" : [ 126.0, 133.0, 49.0, 29.0 ],
									"text" : "!- 1."
								}

							}
, 							{
								"box" : 								{
									"fontname" : "Arial",
									"fontsize" : 18.0,
									"id" : "obj-6",
									"maxclass" : "newobj",
									"numinlets" : 2,
									"numoutlets" : 1,
									"outlettype" : [ "float" ],
									"patching_rect" : [ 210.0, 202.0, 70.0, 29.0 ],
									"text" : "* 0.75"
								}

							}
, 							{
								"box" : 								{
									"fontname" : "Arial",
									"fontsize" : 18.0,
									"id" : "obj-7",
									"maxclass" : "newobj",
									"numinlets" : 2,
									"numoutlets" : 1,
									"outlettype" : [ "float" ],
									"patching_rect" : [ 75.0, 202.0, 70.0, 29.0 ],
									"text" : "* 0.25"
								}

							}
, 							{
								"box" : 								{
									"fontname" : "Arial",
									"fontsize" : 18.0,
									"id" : "obj-8",
									"linecount" : 2,
									"maxclass" : "comment",
									"numinlets" : 1,
									"numoutlets" : 0,
									"patching_rect" : [ 456.0, 55.0, 190.0, 47.0 ],
									"text" : "This is a simple one pole low pass filter"
								}

							}
 ],
						"lines" : [ 							{
								"patchline" : 								{
									"destination" : [ "obj-7", 0 ],
									"source" : [ "obj-2", 0 ]
								}

							}
, 							{
								"patchline" : 								{
									"destination" : [ "obj-5", 0 ],
									"order" : 1,
									"source" : [ "obj-3", 0 ]
								}

							}
, 							{
								"patchline" : 								{
									"destination" : [ "obj-6", 1 ],
									"order" : 0,
									"source" : [ "obj-3", 0 ]
								}

							}
, 							{
								"patchline" : 								{
									"destination" : [ "obj-1", 0 ],
									"order" : 1,
									"source" : [ "obj-4", 0 ]
								}

							}
, 							{
								"patchline" : 								{
									"color" : [ 0.290196, 0.611765, 0.380392, 1.0 ],
									"destination" : [ "obj-6", 0 ],
									"midpoints" : [ 144.5, 327.0, 322.0, 327.0, 322.0, 164.0, 219.5, 164.0 ],
									"order" : 0,
									"source" : [ "obj-4", 0 ]
								}

							}
, 							{
								"patchline" : 								{
									"destination" : [ "obj-7", 1 ],
									"source" : [ "obj-5", 0 ]
								}

							}
, 							{
								"patchline" : 								{
									"destination" : [ "obj-4", 1 ],
									"source" : [ "obj-6", 0 ]
								}

							}
, 							{
								"patchline" : 								{
									"destination" : [ "obj-4", 0 ],
									"source" : [ "obj-7", 0 ]
								}

							}
 ]
					}
,
					"patching_rect" : [ 630.0, 669.471313000000009, 87.0, 24.0 ],
					"saved_object_attributes" : 					{
						"description" : "",
						"digest" : "",
						"globalpatchername" : "",
						"tags" : ""
					}
,
					"text" : "p smoother"
				}

			}
, 			{
				"box" : 				{
					"id" : "obj-31",
					"maxclass" : "jit.pwindow",
					"numinlets" : 1,
					"numoutlets" : 2,
					"outlettype" : [ "jit_matrix", "" ],
					"patching_rect" : [ 230.0, 449.5, 212.0, 119.25 ],
					"sync" : 1
				}

			}
, 			{
				"box" : 				{
					"id" : "obj-30",
					"maxclass" : "newobj",
					"numinlets" : 1,
					"numoutlets" : 2,
					"outlettype" : [ "jit_matrix", "" ],
					"patching_rect" : [ 78.0, 478.0, 62.0, 22.0 ],
					"text" : "jit.change"
				}

			}
, 			{
				"box" : 				{
					"id" : "obj-101",
					"linecount" : 2,
					"maxclass" : "comment",
					"numinlets" : 1,
					"numoutlets" : 0,
					"patching_rect" : [ 202.25, 627.125, 87.75, 33.0 ],
					"text" : "Frame Difference"
				}

			}
, 			{
				"box" : 				{
					"id" : "obj-99",
					"maxclass" : "jit.pwindow",
					"numinlets" : 1,
					"numoutlets" : 2,
					"outlettype" : [ "jit_matrix", "" ],
					"patching_rect" : [ 78.0, 715.5, 212.0, 119.25 ],
					"sync" : 1
				}

			}
, 			{
				"box" : 				{
					"id" : "obj-97",
					"maxclass" : "newobj",
					"numinlets" : 2,
					"numoutlets" : 2,
					"outlettype" : [ "jit_matrix", "" ],
					"patching_rect" : [ 78.0, 673.125, 103.0, 22.0 ],
					"text" : "jit.op @op absdiff"
				}

			}
, 			{
				"box" : 				{
					"id" : "obj-98",
					"maxclass" : "newobj",
					"numinlets" : 1,
					"numoutlets" : 2,
					"outlettype" : [ "", "" ],
					"patching_rect" : [ 78.0, 627.125, 103.0, 22.0 ],
					"text" : "t l l"
				}

			}
, 			{
				"box" : 				{
					"id" : "obj-95",
					"maxclass" : "newobj",
					"numinlets" : 6,
					"numoutlets" : 1,
					"outlettype" : [ "" ],
					"patching_rect" : [ 1080.952519476413727, 555.238166391849518, 107.0, 22.0 ],
					"text" : "scale 0. 0.25 -2. 0."
				}

			}
, 			{
				"box" : 				{
					"id" : "obj-88",
					"linecount" : 2,
					"maxclass" : "comment",
					"numinlets" : 1,
					"numoutlets" : 0,
					"patching_rect" : [ 99.0, 424.221313000000009, 129.0, 33.0 ],
					"text" : "Scale the Matrix and turn Greyscale"
				}

			}
, 			{
				"box" : 				{
					"id" : "obj-87",
					"maxclass" : "jit.pwindow",
					"numinlets" : 1,
					"numoutlets" : 2,
					"outlettype" : [ "jit_matrix", "" ],
					"patching_rect" : [ 715.0, 189.5, 212.0, 119.25 ],
					"sync" : 1
				}

			}
, 			{
				"box" : 				{
					"fontname" : "Arial",
					"fontsize" : 12.0,
					"id" : "obj-85",
					"maxclass" : "comment",
					"numinlets" : 1,
					"numoutlets" : 0,
					"patching_rect" : [ 863.0, 156.75, 68.0, 20.0 ],
					"text" : "Threshold"
				}

			}
, 			{
				"box" : 				{
					"fontname" : "Arial",
					"fontsize" : 13.0,
					"format" : 6,
					"id" : "obj-83",
					"maxclass" : "flonum",
					"numinlets" : 1,
					"numoutlets" : 2,
					"outlettype" : [ "", "bang" ],
					"parameter_enable" : 0,
					"patching_rect" : [ 870.0, 120.0, 54.0, 23.0 ],
					"triscale" : 0.9
				}

			}
, 			{
				"box" : 				{
					"fontface" : 0,
					"fontname" : "Arial",
					"fontsize" : 13.0,
					"id" : "obj-84",
					"maxclass" : "newobj",
					"numinlets" : 2,
					"numoutlets" : 2,
					"outlettype" : [ "jit_matrix", "" ],
					"patching_rect" : [ 715.0, 156.75, 136.0, 23.0 ],
					"text" : "jit.op @op > @val 0.1"
				}

			}
, 			{
				"box" : 				{
					"attr" : "op",
					"fontface" : 0,
					"fontname" : "Arial",
					"fontsize" : 13.0,
					"id" : "obj-35",
					"lock" : 1,
					"maxclass" : "attrui",
					"numinlets" : 1,
					"numoutlets" : 1,
					"outlettype" : [ "" ],
					"parameter_enable" : 0,
					"patching_rect" : [ 747.0, 120.0, 100.0, 23.0 ],
					"text_width" : 52.0
				}

			}
, 			{
				"box" : 				{
					"fontname" : "Arial",
					"fontsize" : 13.0,
					"id" : "obj-6",
					"maxclass" : "message",
					"numinlets" : 2,
					"numoutlets" : 1,
					"outlettype" : [ "" ],
					"patching_rect" : [ 162.0, 116.0, 40.0, 23.0 ],
					"text" : "open"
				}

			}
, 			{
				"box" : 				{
					"id" : "obj-48",
					"linecount" : 2,
					"maxclass" : "comment",
					"numinlets" : 1,
					"numoutlets" : 0,
					"patching_rect" : [ 336.5, 78.0, 67.0, 33.0 ],
					"text" : "Camera Input"
				}

			}
, 			{
				"box" : 				{
					"id" : "obj-46",
					"linecount" : 2,
					"maxclass" : "comment",
					"numinlets" : 1,
					"numoutlets" : 0,
					"patching_rect" : [ 874.75, 391.0, 120.0, 33.0 ],
					"text" : "3m finds the -mean- value of all the pixels"
				}

			}
, 			{
				"box" : 				{
					"fontname" : "Arial",
					"fontsize" : 12.0,
					"id" : "obj-41",
					"maxclass" : "newobj",
					"numinlets" : 1,
					"numoutlets" : 2,
					"outlettype" : [ "jit_matrix", "" ],
					"patching_rect" : [ 78.0, 517.5, 89.0, 22.0 ],
					"text" : "jit.rgb2luma"
				}

			}
, 			{
				"box" : 				{
					"fontname" : "Arial",
					"fontsize" : 13.0,
					"format" : 6,
					"id" : "obj-91",
					"maxclass" : "flonum",
					"minimum" : 0.5,
					"numinlets" : 1,
					"numoutlets" : 2,
					"outlettype" : [ "", "bang" ],
					"parameter_enable" : 0,
					"patching_rect" : [ 130.5, 78.0, 45.0, 23.0 ],
					"triscale" : 0.9
				}

			}
, 			{
				"box" : 				{
					"id" : "obj-92",
					"maxclass" : "toggle",
					"numinlets" : 1,
					"numoutlets" : 1,
					"outlettype" : [ "int" ],
					"parameter_enable" : 0,
					"patching_rect" : [ 80.0, 78.0, 24.0, 24.0 ]
				}

			}
, 			{
				"box" : 				{
					"fontname" : "Arial",
					"fontsize" : 13.0,
					"id" : "obj-93",
					"maxclass" : "newobj",
					"numinlets" : 2,
					"numoutlets" : 1,
					"outlettype" : [ "bang" ],
					"patching_rect" : [ 80.0, 116.0, 69.5, 23.0 ],
					"text" : "qmetro 30"
				}

			}
, 			{
				"box" : 				{
					"id" : "obj-20",
					"maxclass" : "jit.pwindow",
					"numinlets" : 1,
					"numoutlets" : 2,
					"outlettype" : [ "jit_matrix", "" ],
					"patching_rect" : [ 80.0, 200.0, 320.0, 180.0 ],
					"sync" : 1
				}

			}
, 			{
				"box" : 				{
					"format" : 6,
					"id" : "obj-26",
					"maxclass" : "flonum",
					"numinlets" : 1,
					"numoutlets" : 2,
					"outlettype" : [ "", "bang" ],
					"parameter_enable" : 0,
					"patching_rect" : [ 821.25, 461.75, 85.0, 22.0 ]
				}

			}
, 			{
				"box" : 				{
					"id" : "obj-25",
					"maxclass" : "newobj",
					"numinlets" : 1,
					"numoutlets" : 4,
					"outlettype" : [ "", "", "", "" ],
					"patching_rect" : [ 810.75, 391.0, 50.5, 22.0 ],
					"text" : "jit.3m"
				}

			}
, 			{
				"box" : 				{
					"id" : "obj-24",
					"maxclass" : "newobj",
					"numinlets" : 2,
					"numoutlets" : 1,
					"outlettype" : [ "float" ],
					"patching_rect" : [ 821.25, 425.75, 41.0, 22.0 ],
					"text" : "/ 255."
				}

			}
, 			{
				"box" : 				{
					"fontsize" : 12.0,
					"id" : "obj-18",
					"maxclass" : "newobj",
					"numinlets" : 1,
					"numoutlets" : 1,
					"outlettype" : [ "jit_matrix" ],
					"patcher" : 					{
						"fileversion" : 1,
						"appversion" : 						{
							"major" : 8,
							"minor" : 6,
							"revision" : 4,
							"architecture" : "x64",
							"modernui" : 1
						}
,
						"classnamespace" : "box",
						"rect" : [ 856.0, 79.0, 965.0, 784.0 ],
						"bglocked" : 0,
						"openinpresentation" : 0,
						"default_fontsize" : 12.0,
						"default_fontface" : 0,
						"default_fontname" : "Arial",
						"gridonopen" : 1,
						"gridsize" : [ 15.0, 15.0 ],
						"gridsnaponopen" : 1,
						"objectsnaponopen" : 1,
						"statusbarvisible" : 2,
						"toolbarvisible" : 1,
						"lefttoolbarpinned" : 0,
						"toptoolbarpinned" : 0,
						"righttoolbarpinned" : 0,
						"bottomtoolbarpinned" : 0,
						"toolbars_unpinned_last_save" : 0,
						"tallnewobj" : 0,
						"boxanimatetime" : 200,
						"enablehscroll" : 1,
						"enablevscroll" : 1,
						"devicewidth" : 0.0,
						"description" : "",
						"digest" : "",
						"tags" : "",
						"style" : "",
						"subpatcher_template" : "",
						"assistshowspatchername" : 0,
						"boxes" : [ 							{
								"box" : 								{
									"id" : "obj-20",
									"maxclass" : "jit.pwindow",
									"numinlets" : 1,
									"numoutlets" : 2,
									"outlettype" : [ "jit_matrix", "" ],
									"patching_rect" : [ 128.75, 430.5, 320.0, 180.0 ],
									"sync" : 1
								}

							}
, 							{
								"box" : 								{
									"comment" : "",
									"id" : "obj-2",
									"index" : 1,
									"maxclass" : "inlet",
									"numinlets" : 0,
									"numoutlets" : 1,
									"outlettype" : [ "bang" ],
									"patching_rect" : [ 93.0, 80.0, 30.0, 30.0 ]
								}

							}
, 							{
								"box" : 								{
									"comment" : "",
									"id" : "obj-1",
									"index" : 1,
									"maxclass" : "outlet",
									"numinlets" : 1,
									"numoutlets" : 0,
									"patching_rect" : [ 93.0, 670.0, 30.0, 30.0 ]
								}

							}
, 							{
								"box" : 								{
									"attr" : "adapt",
									"fontface" : 0,
									"fontname" : "Arial",
									"fontsize" : 13.0,
									"id" : "obj-9",
									"maxclass" : "attrui",
									"numinlets" : 1,
									"numoutlets" : 1,
									"outlettype" : [ "" ],
									"parameter_enable" : 0,
									"patching_rect" : [ 510.5, 249.0, 96.0, 23.0 ],
									"text_width" : 58.0
								}

							}
, 							{
								"box" : 								{
									"fontname" : "Arial",
									"fontsize" : 13.0,
									"id" : "obj-16",
									"maxclass" : "newobj",
									"numinlets" : 1,
									"numoutlets" : 2,
									"outlettype" : [ "clear", "clear" ],
									"patcher" : 									{
										"fileversion" : 1,
										"appversion" : 										{
											"major" : 8,
											"minor" : 6,
											"revision" : 4,
											"architecture" : "x64",
											"modernui" : 1
										}
,
										"classnamespace" : "box",
										"rect" : [ 34.0, 79.0, 504.0, 449.0 ],
										"bglocked" : 0,
										"openinpresentation" : 0,
										"default_fontsize" : 12.0,
										"default_fontface" : 0,
										"default_fontname" : "Arial",
										"gridonopen" : 1,
										"gridsize" : [ 15.0, 15.0 ],
										"gridsnaponopen" : 1,
										"objectsnaponopen" : 1,
										"statusbarvisible" : 2,
										"toolbarvisible" : 1,
										"lefttoolbarpinned" : 0,
										"toptoolbarpinned" : 0,
										"righttoolbarpinned" : 0,
										"bottomtoolbarpinned" : 0,
										"toolbars_unpinned_last_save" : 0,
										"tallnewobj" : 0,
										"boxanimatetime" : 200,
										"enablehscroll" : 1,
										"enablevscroll" : 1,
										"devicewidth" : 0.0,
										"description" : "",
										"digest" : "",
										"tags" : "",
										"style" : "",
										"subpatcher_template" : "",
										"assistshowspatchername" : 0,
										"boxes" : [ 											{
												"box" : 												{
													"fontname" : "Arial",
													"fontsize" : 13.0,
													"id" : "obj-21",
													"maxclass" : "newobj",
													"numinlets" : 1,
													"numoutlets" : 1,
													"outlettype" : [ "" ],
													"patching_rect" : [ 50.0, 188.5, 27.0, 23.0 ],
													"text" : "iter"
												}

											}
, 											{
												"box" : 												{
													"fontname" : "Arial",
													"fontsize" : 13.0,
													"id" : "obj-23",
													"maxclass" : "newobj",
													"numinlets" : 1,
													"numoutlets" : 1,
													"outlettype" : [ "clear" ],
													"patching_rect" : [ 169.0, 230.5, 46.0, 23.0 ],
													"text" : "t clear"
												}

											}
, 											{
												"box" : 												{
													"fontname" : "Arial",
													"fontsize" : 13.0,
													"id" : "obj-24",
													"maxclass" : "newobj",
													"numinlets" : 1,
													"numoutlets" : 1,
													"outlettype" : [ "clear" ],
													"patching_rect" : [ 375.0, 230.5, 46.0, 23.0 ],
													"text" : "t clear"
												}

											}
, 											{
												"box" : 												{
													"fontname" : "Arial",
													"fontsize" : 13.0,
													"id" : "obj-27",
													"maxclass" : "newobj",
													"numinlets" : 1,
													"numoutlets" : 1,
													"outlettype" : [ "" ],
													"patching_rect" : [ 253.0, 230.5, 107.0, 23.0 ],
													"text" : "prepend append"
												}

											}
, 											{
												"box" : 												{
													"fontname" : "Arial",
													"fontsize" : 13.0,
													"id" : "obj-28",
													"maxclass" : "newobj",
													"numinlets" : 1,
													"numoutlets" : 1,
													"outlettype" : [ "" ],
													"patching_rect" : [ 253.0, 188.5, 27.0, 23.0 ],
													"text" : "iter"
												}

											}
, 											{
												"box" : 												{
													"fontname" : "Arial",
													"fontsize" : 13.0,
													"id" : "obj-32",
													"maxclass" : "newobj",
													"numinlets" : 1,
													"numoutlets" : 1,
													"outlettype" : [ "" ],
													"patching_rect" : [ 50.0, 230.5, 107.0, 23.0 ],
													"text" : "prepend append"
												}

											}
, 											{
												"box" : 												{
													"fontname" : "Arial",
													"fontsize" : 13.0,
													"id" : "obj-33",
													"maxclass" : "newobj",
													"numinlets" : 3,
													"numoutlets" : 3,
													"outlettype" : [ "", "", "" ],
													"patching_rect" : [ 50.0, 101.0, 147.0, 23.0 ],
													"text" : "route vdevlist inputlist"
												}

											}
, 											{
												"box" : 												{
													"comment" : "",
													"id" : "obj-1",
													"index" : 1,
													"maxclass" : "inlet",
													"numinlets" : 0,
													"numoutlets" : 1,
													"outlettype" : [ "" ],
													"patching_rect" : [ 50.0, 40.0, 25.0, 25.0 ]
												}

											}
, 											{
												"box" : 												{
													"comment" : "",
													"id" : "obj-5",
													"index" : 1,
													"maxclass" : "outlet",
													"numinlets" : 1,
													"numoutlets" : 0,
													"patching_rect" : [ 84.5, 334.5, 25.0, 25.0 ]
												}

											}
, 											{
												"box" : 												{
													"comment" : "",
													"id" : "obj-13",
													"index" : 2,
													"maxclass" : "outlet",
													"numinlets" : 1,
													"numoutlets" : 0,
													"patching_rect" : [ 287.5, 334.5, 25.0, 25.0 ]
												}

											}
 ],
										"lines" : [ 											{
												"patchline" : 												{
													"destination" : [ "obj-33", 0 ],
													"source" : [ "obj-1", 0 ]
												}

											}
, 											{
												"patchline" : 												{
													"destination" : [ "obj-32", 0 ],
													"source" : [ "obj-21", 0 ]
												}

											}
, 											{
												"patchline" : 												{
													"destination" : [ "obj-5", 0 ],
													"source" : [ "obj-23", 0 ]
												}

											}
, 											{
												"patchline" : 												{
													"destination" : [ "obj-13", 0 ],
													"source" : [ "obj-24", 0 ]
												}

											}
, 											{
												"patchline" : 												{
													"destination" : [ "obj-13", 0 ],
													"source" : [ "obj-27", 0 ]
												}

											}
, 											{
												"patchline" : 												{
													"destination" : [ "obj-27", 0 ],
													"source" : [ "obj-28", 0 ]
												}

											}
, 											{
												"patchline" : 												{
													"destination" : [ "obj-5", 0 ],
													"source" : [ "obj-32", 0 ]
												}

											}
, 											{
												"patchline" : 												{
													"destination" : [ "obj-21", 0 ],
													"order" : 1,
													"source" : [ "obj-33", 0 ]
												}

											}
, 											{
												"patchline" : 												{
													"destination" : [ "obj-23", 0 ],
													"midpoints" : [ 59.5, 176.5, 178.5, 176.5 ],
													"order" : 0,
													"source" : [ "obj-33", 0 ]
												}

											}
, 											{
												"patchline" : 												{
													"destination" : [ "obj-24", 0 ],
													"midpoints" : [ 123.5, 152.5, 384.5, 152.5 ],
													"order" : 0,
													"source" : [ "obj-33", 1 ]
												}

											}
, 											{
												"patchline" : 												{
													"destination" : [ "obj-28", 0 ],
													"midpoints" : [ 123.5, 162.5, 262.5, 162.5 ],
													"order" : 1,
													"source" : [ "obj-33", 1 ]
												}

											}
 ],
										"bgfillcolor_type" : "gradient",
										"bgfillcolor_color1" : [ 0.435294, 0.462745, 0.498039, 1.0 ],
										"bgfillcolor_color2" : [ 0.290196, 0.309804, 0.301961, 1.0 ],
										"bgfillcolor_color" : [ 0.290196, 0.309804, 0.301961, 1.0 ]
									}
,
									"patching_rect" : [ 486.0, 430.5, 170.0, 23.0 ],
									"saved_object_attributes" : 									{
										"description" : "",
										"digest" : "",
										"globalpatchername" : "",
										"tags" : ""
									}
,
									"text" : "p devices"
								}

							}
, 							{
								"box" : 								{
									"attr" : "interp",
									"fontface" : 0,
									"fontname" : "Arial",
									"fontsize" : 13.0,
									"id" : "obj-55",
									"maxclass" : "attrui",
									"numinlets" : 1,
									"numoutlets" : 1,
									"outlettype" : [ "" ],
									"parameter_enable" : 0,
									"patching_rect" : [ 410.5, 249.0, 96.0, 23.0 ],
									"text_width" : 58.0
								}

							}
, 							{
								"box" : 								{
									"attr" : "dim",
									"fontface" : 0,
									"fontname" : "Arial",
									"fontsize" : 13.0,
									"id" : "obj-54",
									"lock" : 1,
									"maxclass" : "attrui",
									"numinlets" : 1,
									"numoutlets" : 1,
									"outlettype" : [ "" ],
									"parameter_enable" : 0,
									"patching_rect" : [ 251.75, 249.0, 152.0, 23.0 ],
									"text_width" : 32.0
								}

							}
, 							{
								"box" : 								{
									"fontname" : "Arial",
									"fontsize" : 13.0,
									"id" : "obj-25",
									"maxclass" : "message",
									"numinlets" : 2,
									"numoutlets" : 1,
									"outlettype" : [ "" ],
									"patching_rect" : [ 637.0, 526.5, 57.0, 23.0 ],
									"text" : "input $1"
								}

							}
, 							{
								"box" : 								{
									"id" : "obj-26",
									"items" : "<empty>",
									"maxclass" : "umenu",
									"numinlets" : 1,
									"numoutlets" : 3,
									"outlettype" : [ "int", "", "" ],
									"parameter_enable" : 0,
									"patching_rect" : [ 637.0, 475.5, 145.0, 22.0 ]
								}

							}
, 							{
								"box" : 								{
									"fontname" : "Arial",
									"fontsize" : 13.0,
									"id" : "obj-30",
									"maxclass" : "message",
									"numinlets" : 2,
									"numoutlets" : 1,
									"outlettype" : [ "" ],
									"patching_rect" : [ 486.0, 526.5, 73.0, 23.0 ],
									"text" : "vdevice $1"
								}

							}
, 							{
								"box" : 								{
									"id" : "obj-31",
									"items" : [ "FaceTime HD Camera", ",", "HD Pro Webcam C920" ],
									"maxclass" : "umenu",
									"numinlets" : 1,
									"numoutlets" : 3,
									"outlettype" : [ "int", "", "" ],
									"parameter_enable" : 0,
									"patching_rect" : [ 486.0, 475.5, 145.0, 22.0 ]
								}

							}
, 							{
								"box" : 								{
									"fontname" : "Arial",
									"fontsize" : 13.0,
									"id" : "obj-19",
									"maxclass" : "message",
									"numinlets" : 2,
									"numoutlets" : 1,
									"outlettype" : [ "" ],
									"patching_rect" : [ 451.5, 187.0, 74.0, 23.0 ],
									"text" : "getinputlist"
								}

							}
, 							{
								"box" : 								{
									"fontname" : "Arial",
									"fontsize" : 13.0,
									"id" : "obj-17",
									"maxclass" : "message",
									"numinlets" : 2,
									"numoutlets" : 1,
									"outlettype" : [ "" ],
									"patching_rect" : [ 362.0, 187.0, 72.0, 23.0 ],
									"text" : "getvdevlist"
								}

							}
, 							{
								"box" : 								{
									"fontname" : "Arial",
									"fontsize" : 13.0,
									"id" : "obj-8",
									"maxclass" : "message",
									"numinlets" : 2,
									"numoutlets" : 1,
									"outlettype" : [ "" ],
									"patching_rect" : [ 534.75, 187.0, 40.0, 23.0 ],
									"text" : "clear"
								}

							}
, 							{
								"box" : 								{
									"fontname" : "Arial",
									"fontsize" : 13.0,
									"id" : "obj-7",
									"maxclass" : "message",
									"numinlets" : 2,
									"numoutlets" : 1,
									"outlettype" : [ "" ],
									"patching_rect" : [ 304.25, 187.0, 42.0, 23.0 ],
									"text" : "close"
								}

							}
, 							{
								"box" : 								{
									"fontname" : "Arial",
									"fontsize" : 13.0,
									"id" : "obj-6",
									"maxclass" : "message",
									"numinlets" : 2,
									"numoutlets" : 1,
									"outlettype" : [ "" ],
									"patching_rect" : [ 251.75, 187.0, 40.0, 23.0 ],
									"text" : "open"
								}

							}
, 							{
								"box" : 								{
									"fontface" : 0,
									"fontname" : "Arial",
									"fontsize" : 13.0,
									"id" : "obj-95",
									"maxclass" : "newobj",
									"numinlets" : 1,
									"numoutlets" : 2,
									"outlettype" : [ "jit_matrix", "" ],
									"patching_rect" : [ 93.0, 356.5, 116.0, 23.0 ],
									"text" : "jit.grab @unique 1"
								}

							}
 ],
						"lines" : [ 							{
								"patchline" : 								{
									"destination" : [ "obj-26", 0 ],
									"source" : [ "obj-16", 1 ]
								}

							}
, 							{
								"patchline" : 								{
									"destination" : [ "obj-31", 0 ],
									"source" : [ "obj-16", 0 ]
								}

							}
, 							{
								"patchline" : 								{
									"destination" : [ "obj-95", 0 ],
									"midpoints" : [ 371.5, 229.25, 102.5, 229.25 ],
									"source" : [ "obj-17", 0 ]
								}

							}
, 							{
								"patchline" : 								{
									"destination" : [ "obj-95", 0 ],
									"midpoints" : [ 461.0, 229.25, 102.5, 229.25 ],
									"source" : [ "obj-19", 0 ]
								}

							}
, 							{
								"patchline" : 								{
									"destination" : [ "obj-95", 0 ],
									"source" : [ "obj-2", 0 ]
								}

							}
, 							{
								"patchline" : 								{
									"destination" : [ "obj-95", 0 ],
									"midpoints" : [ 646.5, 568.0, 862.0, 568.0, 862.0, 340.0, 102.5, 340.0 ],
									"source" : [ "obj-25", 0 ]
								}

							}
, 							{
								"patchline" : 								{
									"destination" : [ "obj-25", 0 ],
									"source" : [ "obj-26", 0 ]
								}

							}
, 							{
								"patchline" : 								{
									"destination" : [ "obj-95", 0 ],
									"midpoints" : [ 495.5, 586.0, 861.0, 586.0, 861.0, 340.0, 102.5, 340.0 ],
									"source" : [ "obj-30", 0 ]
								}

							}
, 							{
								"patchline" : 								{
									"destination" : [ "obj-30", 0 ],
									"source" : [ "obj-31", 0 ]
								}

							}
, 							{
								"patchline" : 								{
									"destination" : [ "obj-95", 0 ],
									"midpoints" : [ 261.25, 293.0, 102.5, 293.0 ],
									"source" : [ "obj-54", 0 ]
								}

							}
, 							{
								"patchline" : 								{
									"destination" : [ "obj-95", 0 ],
									"midpoints" : [ 420.0, 293.75, 102.5, 293.75 ],
									"source" : [ "obj-55", 0 ]
								}

							}
, 							{
								"patchline" : 								{
									"destination" : [ "obj-95", 0 ],
									"midpoints" : [ 261.25, 229.25, 102.5, 229.25 ],
									"source" : [ "obj-6", 0 ]
								}

							}
, 							{
								"patchline" : 								{
									"destination" : [ "obj-95", 0 ],
									"midpoints" : [ 313.75, 229.25, 102.5, 229.25 ],
									"source" : [ "obj-7", 0 ]
								}

							}
, 							{
								"patchline" : 								{
									"destination" : [ "obj-95", 0 ],
									"midpoints" : [ 544.25, 229.25, 102.5, 229.25 ],
									"source" : [ "obj-8", 0 ]
								}

							}
, 							{
								"patchline" : 								{
									"destination" : [ "obj-95", 0 ],
									"midpoints" : [ 520.0, 294.75, 102.5, 294.75 ],
									"source" : [ "obj-9", 0 ]
								}

							}
, 							{
								"patchline" : 								{
									"destination" : [ "obj-1", 0 ],
									"order" : 1,
									"source" : [ "obj-95", 0 ]
								}

							}
, 							{
								"patchline" : 								{
									"destination" : [ "obj-16", 0 ],
									"midpoints" : [ 199.5, 400.5, 495.5, 400.5 ],
									"source" : [ "obj-95", 1 ]
								}

							}
, 							{
								"patchline" : 								{
									"destination" : [ "obj-20", 0 ],
									"order" : 0,
									"source" : [ "obj-95", 0 ]
								}

							}
 ]
					}
,
					"patching_rect" : [ 80.0, 161.0, 46.0, 22.0 ],
					"saved_object_attributes" : 					{
						"description" : "",
						"digest" : "",
						"globalpatchername" : "",
						"tags" : ""
					}
,
					"text" : "p grab"
				}

			}
, 			{
				"box" : 				{
					"angle" : 0.0,
					"background" : 1,
					"bgcolor" : [ 0.439216, 0.74902, 0.254902, 1.0 ],
					"border" : 1,
					"id" : "obj-100",
					"maxclass" : "panel",
					"mode" : 0,
					"numinlets" : 1,
					"numoutlets" : 0,
					"patching_rect" : [ 63.0, 611.125, 242.0, 238.0 ],
					"proportion" : 0.39
				}

			}
, 			{
				"box" : 				{
					"angle" : 0.0,
					"background" : 1,
					"bgcolor" : [ 0.439216, 0.74902, 0.254902, 1.0 ],
					"border" : 1,
					"id" : "obj-86",
					"maxclass" : "panel",
					"mode" : 0,
					"numinlets" : 1,
					"numoutlets" : 0,
					"patching_rect" : [ 700.5, 108.0, 244.0, 218.0 ],
					"proportion" : 0.39
				}

			}
, 			{
				"box" : 				{
					"angle" : 0.0,
					"background" : 1,
					"bgcolor" : [ 0.92549, 0.364706, 0.341176, 1.0 ],
					"border" : 1,
					"id" : "obj-90",
					"maxclass" : "panel",
					"mode" : 0,
					"numinlets" : 1,
					"numoutlets" : 0,
					"patching_rect" : [ 61.0, 419.5, 403.0, 164.0 ],
					"proportion" : 0.39
				}

			}
, 			{
				"box" : 				{
					"angle" : 270.0,
					"background" : 1,
					"bgcolor" : [ 0.317647, 0.654902, 0.976471, 0.71 ],
					"id" : "obj-47",
					"maxclass" : "panel",
					"mode" : 0,
					"numinlets" : 1,
					"numoutlets" : 0,
					"patching_rect" : [ 799.25, 379.75, 206.5, 128.5 ],
					"proportion" : 0.39
				}

			}
, 			{
				"box" : 				{
					"angle" : 0.0,
					"background" : 1,
					"bgcolor" : [ 0.439216, 0.74902, 0.254902, 1.0 ],
					"border" : 1,
					"id" : "obj-43",
					"maxclass" : "panel",
					"mode" : 0,
					"numinlets" : 1,
					"numoutlets" : 0,
					"patching_rect" : [ 609.25, 579.221313000000009, 237.75, 261.0 ],
					"proportion" : 0.39
				}

			}
, 			{
				"box" : 				{
					"angle" : 270.0,
					"background" : 1,
					"bgcolor" : [ 0.701961, 0.415686, 0.886275, 0.62 ],
					"id" : "obj-17",
					"maxclass" : "panel",
					"mode" : 0,
					"numinlets" : 1,
					"numoutlets" : 0,
					"patching_rect" : [ 61.0, 64.0, 381.0, 334.0 ],
					"proportion" : 0.39
				}

			}
 ],
		"lines" : [ 			{
				"patchline" : 				{
					"destination" : [ "obj-5", 0 ],
					"source" : [ "obj-1", 1 ]
				}

			}
, 			{
				"patchline" : 				{
					"destination" : [ "obj-20", 0 ],
					"source" : [ "obj-18", 0 ]
				}

			}
, 			{
				"patchline" : 				{
					"destination" : [ "obj-30", 0 ],
					"source" : [ "obj-20", 0 ]
				}

			}
, 			{
				"patchline" : 				{
					"destination" : [ "obj-26", 0 ],
					"source" : [ "obj-24", 0 ]
				}

			}
, 			{
				"patchline" : 				{
					"destination" : [ "obj-24", 0 ],
					"source" : [ "obj-25", 1 ]
				}

			}
, 			{
				"patchline" : 				{
					"destination" : [ "obj-76", 0 ],
					"source" : [ "obj-26", 0 ]
				}

			}
, 			{
				"patchline" : 				{
					"destination" : [ "obj-41", 0 ],
					"source" : [ "obj-30", 0 ]
				}

			}
, 			{
				"patchline" : 				{
					"destination" : [ "obj-84", 0 ],
					"source" : [ "obj-35", 0 ]
				}

			}
, 			{
				"patchline" : 				{
					"destination" : [ "obj-53", 0 ],
					"source" : [ "obj-4", 0 ]
				}

			}
, 			{
				"patchline" : 				{
					"destination" : [ "obj-31", 0 ],
					"order" : 0,
					"source" : [ "obj-41", 0 ]
				}

			}
, 			{
				"patchline" : 				{
					"destination" : [ "obj-98", 0 ],
					"order" : 1,
					"source" : [ "obj-41", 0 ]
				}

			}
, 			{
				"patchline" : 				{
					"destination" : [ "obj-33", 1 ],
					"order" : 2,
					"source" : [ "obj-51", 0 ]
				}

			}
, 			{
				"patchline" : 				{
					"destination" : [ "obj-60", 0 ],
					"order" : 0,
					"source" : [ "obj-51", 0 ]
				}

			}
, 			{
				"patchline" : 				{
					"destination" : [ "obj-77", 0 ],
					"order" : 3,
					"source" : [ "obj-51", 0 ]
				}

			}
, 			{
				"patchline" : 				{
					"destination" : [ "obj-95", 0 ],
					"order" : 1,
					"source" : [ "obj-51", 0 ]
				}

			}
, 			{
				"patchline" : 				{
					"destination" : [ "obj-58", 0 ],
					"source" : [ "obj-53", 1 ]
				}

			}
, 			{
				"patchline" : 				{
					"destination" : [ "obj-18", 0 ],
					"source" : [ "obj-6", 0 ]
				}

			}
, 			{
				"patchline" : 				{
					"destination" : [ "obj-53", 0 ],
					"order" : 1,
					"source" : [ "obj-60", 0 ]
				}

			}
, 			{
				"patchline" : 				{
					"destination" : [ "obj-61", 1 ],
					"order" : 0,
					"source" : [ "obj-60", 0 ]
				}

			}
, 			{
				"patchline" : 				{
					"destination" : [ "obj-51", 0 ],
					"source" : [ "obj-76", 0 ]
				}

			}
, 			{
				"patchline" : 				{
					"destination" : [ "obj-79", 0 ],
					"source" : [ "obj-78", 0 ]
				}

			}
, 			{
				"patchline" : 				{
					"destination" : [ "obj-51", 1 ],
					"source" : [ "obj-79", 0 ]
				}

			}
, 			{
				"patchline" : 				{
					"destination" : [ "obj-84", 1 ],
					"source" : [ "obj-83", 0 ]
				}

			}
, 			{
				"patchline" : 				{
					"destination" : [ "obj-25", 0 ],
					"order" : 0,
					"source" : [ "obj-84", 0 ]
				}

			}
, 			{
				"patchline" : 				{
					"destination" : [ "obj-87", 0 ],
					"order" : 1,
					"source" : [ "obj-84", 0 ]
				}

			}
, 			{
				"patchline" : 				{
					"destination" : [ "obj-93", 1 ],
					"source" : [ "obj-91", 0 ]
				}

			}
, 			{
				"patchline" : 				{
					"destination" : [ "obj-93", 0 ],
					"source" : [ "obj-92", 0 ]
				}

			}
, 			{
				"patchline" : 				{
					"destination" : [ "obj-18", 0 ],
					"source" : [ "obj-93", 0 ]
				}

			}
, 			{
				"patchline" : 				{
					"destination" : [ "obj-32", 1 ],
					"source" : [ "obj-95", 0 ]
				}

			}
, 			{
				"patchline" : 				{
					"destination" : [ "obj-84", 0 ],
					"order" : 0,
					"source" : [ "obj-97", 0 ]
				}

			}
, 			{
				"patchline" : 				{
					"destination" : [ "obj-99", 0 ],
					"order" : 1,
					"source" : [ "obj-97", 0 ]
				}

			}
, 			{
				"patchline" : 				{
					"destination" : [ "obj-97", 0 ],
					"source" : [ "obj-98", 1 ]
				}

			}
, 			{
				"patchline" : 				{
					"destination" : [ "obj-97", 1 ],
					"source" : [ "obj-98", 0 ]
				}

			}
 ],
		"dependency_cache" : [ 			{
				"name" : "prim.loop.aif",
				"bootpath" : "C74:/packages/max-mxj/examples",
				"type" : "AIFF",
				"implicit" : 1
			}
 ],
		"autosave" : 0,
		"styles" : [ 			{
				"name" : "AudioStatus_Menu",
				"default" : 				{
					"bgfillcolor" : 					{
						"angle" : 270.0,
						"autogradient" : 0,
						"color" : [ 0.294118, 0.313726, 0.337255, 1 ],
						"color1" : [ 0.454902, 0.462745, 0.482353, 0.0 ],
						"color2" : [ 0.290196, 0.309804, 0.301961, 1.0 ],
						"proportion" : 0.39,
						"type" : "color"
					}

				}
,
				"parentstyle" : "",
				"multi" : 0
			}
 ]
	}

}
